<?xml version="1.0"?>
<svg xmlns="http://www.w3.org/2000/svg" xmlns:xlink="http://www.w3.org/1999/xlink" xmlns:svgjs="http://svgjs.com/svgjs" version="1.1" width="256" height="256" x="0" y="0" viewBox="0 0 24 24" style="enable-background:new 0 0 512 512" xml:space="preserve"><g><path d="M.88,14.09,4.75,18a1,1,0,0,0,1.42,0h0a1,1,0,0,0,0-1.42L2.61,13H23a1,1,0,0,0,1-1h0a1,1,0,0,0-1-1H2.55L6.17,7.38A1,1,0,0,0,6.17,6h0A1,1,0,0,0,4.75,6L.88,9.85A3,3,0,0,0,.88,14.09Z" fill="#ffffff" data-original="#000000"/></g></svg>
