<svg xmlns="http://www.w3.org/2000/svg" viewBox="0 0 960.48 628.58"><defs><style>.cls-1{fill:#fbfafa;}.cls-2{fill:#005bff;}</style></defs><g id="Layer_2" data-name="Layer 2"><path class="cls-1" d="M251.86,141.57V374.34c0,18.7,0,37.44.39,56.37H205c-1.07-5.85-2-18-2.3-23.78-9.88,17.74-28.42,28.53-59.76,28.53-51.68,0-84.18-41.63-84.18-104.53,0-62.55,34.72-108.17,91.81-108.17,31.5,0,47.31,11.73,52.13,21.61V141.57Zm-142.48,188c0,42.8,18.1,66,47.11,66,41.65,0,48.12-33.21,48.12-67.57,0-38.25-6.43-65.29-46.23-65.29C126.73,262.68,109.38,287.54,109.38,329.58Z"/><path class="cls-2" d="M263,254.42c10.95-36.77,17.83-83.15,18.62-112.85h51.48c-2.81,36.3-15,83.15-30.26,112.85Z"/><path class="cls-1" d="M498.94,408.13c0,65.19-25,105-98.42,105-70,0-86-39.11-88.58-63.62H362c4.62,16.75,17.45,27,40.65,27,39.76,0,48.17-24.62,48.17-66.79v-12c-10.68,19.33-28.11,30.95-59.37,30.95-52.35,0-84.05-42.83-84.05-99.12,0-64.47,38.23-106.9,88.48-106.9,36.17,0,51.34,17,54.94,27.86.39-6.75,1.62-19.48,2-23.12h46.57c-.28,16-.51,38.9-.51,58.43ZM358,327.49c0,37.62,19.09,61.09,46.79,61.09,37.22,0,47.53-25.33,47.53-63.15,0-38.05-8.05-62.75-46.34-62.75C377.18,262.68,358,285.74,358,327.49Z"/><path class="cls-1" d="M522.33,282.65c0-22.95-.12-40.23-.4-55.15h48.2c.67,4.94,1.35,23.69,1.35,37.63,9.52-24.66,32-41.9,66.29-42.37v47.4c-41.12-.28-66.29,14.32-66.29,68.58v92H522.33Z"/><path class="cls-1" d="M798.94,381c0,19.06,1.59,44.54,2.77,49.75h-47c-1.58-4.18-2.76-14.54-3-22.12-7.28,12.13-21.9,26.87-59,26.87-48.63,0-69.23-31.87-69.23-63.18,0-46,36.66-67.14,96.51-67.14h30.91V291.08c0-15.61-5.38-32.4-35.48-32.4-27.18,0-32.56,12.36-35.52,27.46H633c2.93-33.38,23.58-63.66,84.23-63.38C770,223,798.94,244,798.94,291.6ZM751,336H724.75C688.63,336,673,346.63,673,369.27c0,16.87,10.87,30.26,32.72,30.26,40.18,0,45.32-27.57,45.32-57.8Z"/><path class="cls-1" d="M828.28,430.71V265.21H797.6V227.5h30.68v-20c0-40.41,18.63-69.86,62.91-69.86,8.7,0,19.89.91,24.91,2.49v39.49a76.11,76.11,0,0,0-13.86-1.26c-18.06,0-24.82,8.29-24.82,32.7V227.5h37.27v37.71H877.42v165.5Z"/></g></svg>